<svg xmlns="http://www.w3.org/2000/svg" version="1.1" xmlns:xlink="http://www.w3.org/1999/xlink" width="1000" height="1000"><g clip-path="url(#SvgjsClipPath1107)"><rect width="1000" height="1000" fill="#ffffff"></rect><g transform="matrix(1.6004023868858457,0,0,1.6004023868858457,150,279.8406456480486)"><svg xmlns="http://www.w3.org/2000/svg" version="1.1" xmlns:xlink="http://www.w3.org/1999/xlink" width="437.39" height="275.13"><svg id="Warstwa_2" data-name="Warstwa 2" xmlns="http://www.w3.org/2000/svg" viewBox="0 0 437.39 275.13">
  <defs>
    <style>
      .cls-1 {
        fill: #dedca4;
      }

      .cls-2 {
        fill: #57564b;
      }
    </style>
  <clipPath id="SvgjsClipPath1107"><rect width="1000" height="1000" x="0" y="0" rx="150" ry="150"></rect></clipPath></defs>
  <g id="Layer_3" data-name="Layer 3">
    <g id="OlaGlinka_logo_forWhiteBG">
      <g id="_Group_" data-name="&amp;lt;Group&amp;gt;">
        <path class="cls-1" d="M417.93,146.49c2.16-13.54-4.25-26.98-13.66-36.44-1.59-1.66-1.42-1.73-.9.39,5.02,19.93,5.28,27.41-.68,50.53-2.08,9.19-5.82,12.47-11.09,19.07,4.4-12.76,1.81-26.61-6.82-37.45,1.14,12.59,1.17,18.54-2.38,31.77-1.99,7.51-3.07,16.07-7.13,22.6-18.84,2.38-29.33-16.18-28.47-33.12.28-10.23,3.46-20.13,6.38-29.94,2.91-9.81,5.61-19.93,4.88-30.14-.73-10.22-5.48-20.68-14.37-25.76-9.5-5.42-9.78-21.15-1.01-27.68,5.2-3.88,12.28-4.13,17.49-2.78,4.61,3.74,8.9,8.06,12.77,12.99,11.71,14.05,30.43,19.84,42.08,32.72,16.4,16.34,15.57,35.25,2.91,53.24Z"></path>
        <path class="cls-1" d="M93.36,66.03s-.04.11-.07.16c-1.35,3.13-3.42,5.93-5.99,8.25-.03.03-.06.06-.1.08-1.65,1.49-3.49,2.77-5.45,3.81-9.96,5.57-24.64,2.64-27.32-6.78,2.42-16.08,27.3-25.73,39.81-16.37.98,3.44.62,7.39-.88,10.85Z"></path>
        <path class="cls-1" d="M59.13,83.98s-.03.02-.04.03c-.05.05-.11.1-.16.16-.12-.1-.24-.21-.36-.33.19.05.38.1.56.14Z"></path>
        <path class="cls-1" d="M75.45,88.64c-5.97.61-11.63-.69-15.61-3.72.14-.23.3-.46.47-.69,4.82.88,9.71-.01,14.3-1.73.11.83.23,1.65.32,2.29.17,1.13.32,2.45.52,3.85Z"></path>
        <path class="cls-1" d="M92.8,81c-1.83,1.65-3.97,3.13-6.39,4.37-2.79,1.43-5.7,2.4-8.57,2.93-.77-1.97-1.51-4-2.35-6.13,2.29-.92,4.51-2.04,6.6-3.23,1.7-1.05,3.39-2.22,5-3.53.52.67,2.46,2.3,3.37,3.2.81.77,1.57,1.58,2.34,2.39Z"></path>
        <path class="cls-1" d="M100.04,67.81c-.37,3.98-2.33,8.05-5.59,11.55-2.27-1.44-4.51-2.92-6.65-4.54,2.78-2.34,5.27-5.08,7.05-8.21,1.72.43,3.45.83,5.19,1.2Z"></path>
        <path class="cls-1" d="M100.09,65.77c-1.63.06-3.26.13-4.89.2,1.07-2.02,1.85-4.2,2.23-6.54.03-.22.06-.43.08-.65.08,0,.15-.01.23-.02.15.21.29.42.42.64,1.2,1.98,1.83,4.14,1.93,6.37Z"></path>
        <path class="cls-2" d="M272.91,111.11c-2.94-5.21-9.63-7.19-15.55-8.39-5.47,16.29-29.55,6.14-21.58-9.19-6.82-11.6,8.11-24.53,19.37-19.51-5.65-1.04-19.31,11.6-9.66,11.46,15.95-.47,22.36,12.73,27.42,25.63Z"></path>
        <path class="cls-2" d="M399.75,182.57c-15.05,19.48-44.31,52.84-68.15,26.82-10.77-10.97-17.1-25.9-15.59-41.39.63-7.64,2.43-15.11,3.8-22.63,3.94-19.47,3.7-40.1,1.24-60.03-1.38-9.26-2.92-19.47-9.64-26.51,14.2,9.68,17.22,29.13,19.15,45.07,2.16,21.66-4.16,45.41-6.66,66.07-1.29,15.16,8.38,33.42,21.74,39.97,8.15,2.92,15.88-.87,22.25-5.72.01-.01.05-.04.1-.08.09-.07.23-.17.35-.27,3.02-1.8,5.24-4.17,6.93-6.91,4.06-6.53,5.14-15.09,7.13-22.6,3.55-13.23,3.52-19.18,2.38-31.77,8.63,10.84,11.22,24.69,6.82,37.45,5.27-6.6,9.01-9.88,11.09-19.07,5.96-23.12,5.7-30.6.68-50.53-.52-2.12-.69-2.05.9-.39,9.41,9.46,15.82,22.9,13.66,36.44,12.66-17.99,13.49-36.9-2.91-53.24-11.65-12.88-30.37-18.67-42.08-32.72-3.87-4.93-8.16-9.25-12.77-12.99-23.32-18.98-54.99-23.41-83.32-17.67-22.51,2.63-35.41,7.11-50.57,24.81-31.57,46.4-40.85,54.22-87.11,53.9,4.15,3.74,6.76,9.15,6.76,15.17,0,11.26-9.13,20.39-20.39,20.39-4.31,0-8.31-1.34-11.61-3.62,4.6,14.02,10.11,28.38,18.88,38.51,32.14,35.16,87.91,17.39,123.58.08-6.5,8.68-15.71,15.95-26.28,21.32,28.74-2.74,52.29,18.66,57.31,46.24-7.73-8.34-19.77-20.22-27.37-24.73,9.69,15.84,9.79,35.84,5.66,53.19-4.11-14.33-9.08-28.37-13.67-42.53-7.18,34.64-47.89,42.29-78.01,38.17,20.38-4.12,45.03-6.67,60.87-22.35,13.02-13.38,14.1-35.09-3.38-39.44-9.11-2.59-21.06-1.37-33.11-.96-32.35,1.77-69.02-7.73-82.23-40.55-6.5-16.88-21.31-41.64-11.98-59.01,7.66-11.3,23.68-7.79,35.43-8.27,33.95,1.66,45.19-3,66.15-30.36-5.88.9-12.55-3.17-13.46-9.24,5.43,5.13,13.8,3.49,19.64,1.18,17-29.56,39.33-38.03,71.86-40.9,22.26-3.32,45.65-.2,65.87,9.86,13.53,7.06,24.84,20.05,35.2,30.47,24.42,4.78,40.15,11.15,52.5,34.18-6.98-3.75-13.67-8.03-20.71-11.65,38.93,34.68,9.15,68.4-16.93,98.84Z"></path>
        <path class="cls-2" d="M133.55,33.98c-2.54-.66-5.14-.65-7.73-.3,19.73-14.62-2.14-32.05-18.26-18.39,6.5-17.5-14.99-20.17-22.33-7.01-8.06-10.45-24.41-.38-21.32,11.73-8.87-14.09-36.63-7.6-30.62,10.57-9.78-2.63-30.06,7.41-20.38,18.51-13.07,2.91-19.85,20.85-2.46,23.02-4.39,4.48-4.27,12.97,1.71,16.01,13.24,5.13,24.14-10.33,36.39-12.21.53.99,1.15,1.92,1.86,2.79-7.18,3.55-22.65,7.8-24.27,16.38,1.17,13.73,21.48,14.29,26.93,2.9,2.22,12.37,22.32,13.27,24.94.45,6.59,14.39,30.54,4.04,25.72-10.25,9.87,4.07,24.22-6.48,17.77-16.97,8.96-.31,18.49-13.11,10.36-20.09,6.64-3.04,10.46-14.31,1.69-17.14ZM104.71,21.54s.05-.1.07-.15c5.66-5.67,26.13-9.98,22.12,2.74-7.63,10.35-24.68,12.57-32.16,24.34-1.07-1.41-2.39-2.64-3.89-3.65,2.99-7.62,9.77-15.42,13.86-23.28ZM87.3,74.44c-12.01,12.87-41.33,5.96-31.36-13.58,13-26.07,56.66-14.56,31.36,13.58ZM84.42,23.87c.48-4.59,2.61-9.58,1.46-14.1,4.27-4.32,10.13-7.21,15.6-4.61t0,.01c6.37,5.7-11.59,28.57-11.71,38.96-2.03-1.19-4.33-2.02-6.73-2.44-.24-6.45.43-12.65,1.37-17.82ZM66.14,17.06c1.44-6.26,8.13-10.63,13.99-6.12.74,1.09.34,2.43.04,4.89-1.13,8.53-1.1,17.28,1.17,25.63-2.8-.26-5.62-.12-8.52.47-2.63-6.45-3.58-13.68-7.19-19.66-.06-1.84-.01-3.6.51-5.21ZM39.01,21.49c4.33-4.62,11.77-4.29,17.6-.98,7.48,4.44,10.21,14.76,15.21,21.64-5.09,1.16-10.15,3.57-14.38,6.88-5.08-7.23-11.51-14.36-19.97-17.44-2.52-3.14-1.66-6.79,1.54-10.1ZM46.91,74.96c-10.14.08-19.19,6.81-28.44,8.54-8.42.94-7.22-7.33-3.51-11.15,10.62-1.13,21.11-5.95,31.8-4.52-.12,2.45.29,4.92,1.34,7.16-.4-.03-.8-.04-1.19-.03ZM46.79,67.36c-12.23-5.47-26.84,1.82-38.71-2.03-7.4-3.24,2.43-12.58,8.63-14.09,12.35,3.65,22.1,2.18,31.73,9.12-.92,2.21-1.51,4.56-1.65,7ZM48.61,59.98c-8.19-10.36-22.7-9.37-32.34-15.85.06-4.89,8.99-7.86,12.17-7.94,10.99-1.4,20.19,6.24,28.35,13.36-3.53,2.9-6.42,6.44-8.18,10.43ZM53.39,92.4c-5.5,5.95-9.6,10.25-16.31,7.59-2.16-.98-5.02-2.26-5.18-4.96,4.32-5.12,13.74-10.8,19.72-15.04,2.09,2.06,4.71,3.35,7.51,3.99-2.5,2.28-4.73,5.15-5.74,8.42ZM75.33,93.56c-1.41,9.23-10.97,11.55-16.88,5.65-4.02-5.03-.24-10.15,1.86-14.98,4.82.88,9.71-.01,14.3-1.73.33,3.47,1.58,7.66.72,11.06ZM99.64,91.6c-.81,4.58-9.78,11.23-14.98,7.23-5.81-3.6-6.38-10.86-9.17-16.66,4.24-1.72,8.06-3.86,11.6-6.76,4.1,4.88,12.12,9.14,12.55,16.19ZM117.84,76.23c-.51,3.74-4.07,6.33-7.69,7.42-8.08,1.88-16.17-4.38-22.35-8.83,2.78-2.34,5.27-5.08,7.05-8.21,6.25,2.84,22.5,1.03,22.99,9.62ZM125.07,64.74c-8.84,3.47-20.13-.31-29.87,1.23,1.16-2.2,2.02-4.64,2.31-7.19,10.73-1.81,22.17-1.84,32.18-6.48,4.98,3.92-1.78,11.57-4.62,12.44ZM133.54,40.45c-3.23,10.14-25.5,11.71-35.93,17.17.1-2.54-.44-4.87-1.48-6.92,7.7-7.58,15.54-8.95,24.79-13.72,5.06-.1,9.31-.09,11.84,1.67.48.46.87,1.1.78,1.8Z"></path>
      </g>
    </g>
  </g>
</svg></svg></g></g></svg>